<svg width="33" height="40" viewBox="0 0 33 40" fill="none" xmlns="http://www.w3.org/2000/svg">
<path d="M20.0224 28.5657L26.5988 36.2678C28.1074 38.0347 31 36.9678 31 34.6444V12C31 6.47715 26.5228 2 21 2H11.0449H4.78226C3.94395 2 3.36562 2.45966 3.06545 2.83911C2.77798 3.2025 2.6445 3.59571 2.58813 3.90928C2.53122 4.22584 2.52305 4.62634 2.65143 5.04769C2.78145 5.47441 3.11652 6.09162 3.8495 6.42264C5.85194 7.32695 9.04486 9.49611 9.04486 14.5143V14.5552V14.5962V14.6373V14.6784V14.7196V14.7608V14.8021V14.8435V14.8849V14.9264V14.9679V15.0095V15.0511V15.0928V15.1345V15.1764V15.2182V15.2601V15.3021V15.3441V15.3862V15.4283V15.4705V15.5127V15.555V15.5973V15.6397V15.6822V15.7246V15.7672V15.8098V15.8524V15.8951V15.9378V15.9806V16.0234V16.0663V16.1092V16.1521V16.1951V16.2382V16.2813V16.3244V16.3676V16.4108V16.4541V16.4974V16.5408V16.5842V16.6276V16.6711V16.7146V16.7582V16.8018V16.8454V16.8891V16.9328V16.9766V17.0204V17.0642V17.1081V17.152V17.1959V17.2399V17.2839V17.328V17.3721V17.4162V17.4604V17.5045V17.5488V17.593V17.6373V17.6816V17.726V17.7704V17.8148V17.8592V17.9037V17.9482V17.9927V18.0373V18.0819V18.1265V18.1712V18.2158V18.2605V18.3053V18.35V18.3948V18.4396V18.4845V18.5293V18.5742V18.6191V18.664V18.709V18.754V18.799V18.844V18.889V18.9341V18.9792V19.0243V19.0694V19.1145V19.1597V19.2049V19.2501V19.2953V19.3405V19.3858V19.431V19.4763V19.5216V19.5669V19.6123V19.6576V19.703V19.7484V19.7938V19.8392V19.8846V19.93V19.9754V20.0209V20.0664V20.1118V20.1573V20.2028V20.2483V20.2938V20.3394V20.3849V20.4304V20.476V20.5215V20.5671V20.6127V20.6582V20.7038V20.7494V20.795V20.8406V20.8862V20.9318V20.9774V21.023V21.0686V21.1143V21.1599V21.2055V21.2511V21.2967V21.3424V21.388V21.4336V21.4792V21.5249V21.5705V21.6161V21.6617V21.7073V21.7529V21.7985V21.8441V21.8897V21.9353V21.9809V22.0265V22.0721V22.1176V22.1632V22.2087V22.2543V22.2998V22.3454V22.3909V22.4364V22.4819V22.5274V22.5729V22.6184V22.6638V22.7093V22.7547V22.8001V22.8456V22.891V22.9363V22.9817V23.0271V23.0724V23.1178V23.1631V23.2084V23.2537V23.2989V23.3442V23.3894V23.4346V23.4798V23.525V23.5702V23.6153V23.6604V23.7055V23.7506V23.7957V23.8407V23.8857V23.9307V23.9757V24.0206V24.0655V24.1104V24.1553V24.2002V24.245V24.2898V24.3346V24.3793V24.4241V24.4688V24.5134V24.5581V24.6027V24.6473V24.6919V24.7364V24.7809V24.8254V24.8698V24.9142V24.9586V25.0029V25.0473V25.0915V25.1358V25.18V25.2242V25.2683V25.3125V25.3565V25.4006V25.4446V25.4886V25.5325V25.5764V25.6203V25.6641V25.7079V25.7517V25.7954V25.8391V25.8827V25.9263V25.9698V26.0134V26.0568V26.1003V26.1437V26.187V26.2303V26.2736V26.3168V26.36V26.4031V26.4462V26.4893V26.5323V26.5752V26.6181V26.661V26.7038V26.7466V26.7893V26.832V26.8746V26.9172V26.9597V27.0022V27.0446V27.087V27.1293V27.1716V27.2138V27.256V27.2981V27.3402V27.3822V27.4241V27.466V27.5079V27.5497V27.5914V27.6331V27.6747V27.7163V27.7578V27.7993V27.8407V27.8821V27.9233V27.9646V28.0057V28.0469V28.0879V28.1289V28.1698V28.2107V28.2515V28.2923V28.3329V28.3736V28.4141V28.4546V28.4951V28.5354V28.5757V28.616V28.6562V28.6963V28.7363V28.7763V28.8162V28.856V28.8958V28.9355V28.9752V29.0147V29.0542V29.0937V29.133V29.1723V29.2115V29.2507V29.2898V29.3288V29.3677V29.4066V29.4453V29.4841V29.5227V29.5613V29.5998V29.6382V29.6765V29.7148V29.753V29.7911V29.8291V29.8671V29.905V29.9428V29.9805V30.0181V30.0557V30.0932V30.1306V30.1679V30.2052V30.2423V30.2794V30.3164V30.3533V30.3901V30.4269V30.4636V30.5001V30.5366V30.5731V30.6094V30.6456V30.6818V30.7179V30.7538V30.7897V30.8255V30.8613V30.8969V30.9324V30.9679V31.0033V31.0385V31.0737V31.1088V31.1438V31.1787V31.2135V31.2483V31.2829V31.3174V31.3519V31.3862V31.4205V31.4547V31.4887V31.5227V31.5566V31.5904V31.6241V31.6576V31.6911V31.7245V31.7578V31.791V31.8241V31.8571V31.89V31.9228V31.9555V31.9881V32.0206V32.053V32.0853V32.1175V32.1495V32.1815V32.2134V32.2452V32.2769V32.3084V32.3399V32.3712V32.4025V32.4336V32.4647V32.4956V32.5264V32.5571V32.5877V32.6182V32.6486V32.6789V32.709V32.7391V32.769V32.7989V32.8286V32.8582V32.8877V32.9171V32.9464V32.9755V33.0046V33.0335V33.0623V33.091V33.1196V33.1481V33.1764V33.2046V33.2328V33.2608V33.2886V33.3164V33.3441V33.3716V33.399V33.4263V33.4535V33.4805V33.5074V33.5342V33.5609V33.5875V33.6139V33.6402V33.6664V33.6925V33.7184V33.7443V33.77V33.7955V33.821V33.8463V33.8715V33.8965V33.9215V33.9463V33.971V33.9955V34.0199V34.0442V34.0684V34.0924V34.1164V34.1401V34.1638V34.1873V34.2107V34.2339V34.257V34.28V34.3028V34.3256V34.3481V34.3706V34.3929V34.4151V34.4371V34.459V34.4808V34.5024V34.5239V34.5452V34.5665V34.5875V34.6085V34.6293V34.6499C9.04486 37.0247 11.9709 37.9955 13.4461 36.2678L20.0224 28.5657Z" fill="#FFDD29" stroke="#FFDD29" stroke-width="4"/>
</svg>
