<svg width="33" height="39" viewBox="0 0 33 39" fill="none" xmlns="http://www.w3.org/2000/svg">
<path d="M20.0224 28.1807L26.7889 36.1054C28.1467 37.6957 30.75 36.7354 30.75 34.6444V12C30.75 6.61522 26.3848 2.25 21 2.25H11.0449H4.12977C3.08955 2.25 2.62702 3.05552 2.54348 3.2133C2.40328 3.47808 2.35195 3.72846 2.33185 3.89684C2.31162 4.06629 2.30329 4.31825 2.37469 4.60389C2.41637 4.77065 2.66138 5.64128 3.64186 5.90926C4.55576 6.15904 5.95881 6.72691 7.1236 7.96983C8.25233 9.17426 9.29486 11.1567 9.29486 14.5143V14.56V14.6057V14.6515V14.6972V14.7431V14.7889V14.8347V14.8806V14.9265V14.9725V15.0184V15.0644V15.1104V15.1564V15.2025V15.2486V15.2947V15.3408V15.3869V15.4331V15.4793V15.5255V15.5717V15.6179V15.6642V15.7105V15.7568V15.8031V15.8494V15.8958V15.9422V15.9886V16.035V16.0814V16.1279V16.1743V16.2208V16.2673V16.3138V16.3603V16.4069V16.4534V16.5V16.5466V16.5932V16.6398V16.6864V16.7331V16.7797V16.8264V16.8731V16.9197V16.9664V17.0131V17.0599V17.1066V17.1533V17.2001V17.2469V17.2936V17.3404V17.3872V17.434V17.4808V17.5276V17.5744V17.6212V17.6681V17.7149V17.7618V17.8086V17.8555V17.9023V17.9492V17.9961V18.043V18.0898V18.1367V18.1836V18.2305V18.2774V18.3243V18.3712V18.4181V18.465V18.5119V18.5588V18.6057V18.6526V18.6995V18.7464V18.7933V18.8402V18.8871V18.934V18.9809V19.0278V19.0747V19.1216V19.1685V19.2154V19.2623V19.3092V19.356V19.4029V19.4498V19.4966V19.5435V19.5904V19.6372V19.684V19.7309V19.7777V19.8245V19.8713V19.9181V19.9649V20.0117V20.0585V20.1052V20.152V20.1988V20.2455V20.2922V20.3389V20.3856V20.4323V20.479V20.5257V20.5724V20.619V20.6656V20.7123V20.7589V20.8055V20.852V20.8986V20.9452V20.9917V21.0382V21.0847V21.1312V21.1777V21.2242V21.2706V21.317V21.3634V21.4098V21.4562V21.5025V21.5489V21.5952V21.6415V21.6878V21.734V21.7803V21.8265V21.8727V21.9189V21.965V22.0111V22.0573V22.1033V22.1494V22.1955V22.2415V22.2875V22.3335V22.3794V22.4253V22.4712V22.5171V22.563V22.6088V22.6546V22.7004V22.7461V22.7918V22.8375V22.8832V22.9288V22.9744V23.02V23.0656V23.1111V23.1566V23.202V23.2475V23.2929V23.3383V23.3836V23.4289V23.4742V23.5194V23.5647V23.6098V23.655V23.7001V23.7452V23.7903V23.8353V23.8803V23.9252V23.9701V24.015V24.0599V24.1047V24.1495V24.1942V24.2389V24.2836V24.3282V24.3728V24.4173V24.4618V24.5063V24.5508V24.5952V24.6395V24.6838V24.7281V24.7724V24.8166V24.8607V24.9048V24.9489V24.9929V25.0369V25.0809V25.1248V25.1687V25.2125V25.2562V25.3V25.3437V25.3873V25.4309V25.4745V25.518V25.5614V25.6049V25.6482V25.6916V25.7348V25.7781V25.8212V25.8644V25.9075V25.9505V25.9935V26.0364V26.0793V26.1222V26.165V26.2077V26.2504V26.293V26.3356V26.3782V26.4207V26.4631V26.5055V26.5478V26.5901V26.6323V26.6745V26.7166V26.7586V26.8006V26.8426V26.8845V26.9263V26.9681V27.0098V27.0515V27.0931V27.1347V27.1762V27.2176V27.259V27.3003V27.3416V27.3828V27.424V27.4651V27.5061V27.5471V27.588V27.6288V27.6696V27.7103V27.751V27.7916V27.8321V27.8726V27.913V27.9534V27.9937V28.0339V28.0741V28.1142V28.1542V28.1942V28.2341V28.2739V28.3137V28.3534V28.393V28.4326V28.4721V28.5115V28.5509V28.5902V28.6295V28.6686V28.7077V28.7467V28.7857V28.8246V28.8634V28.9022V28.9408V28.9794V29.018V29.0564V29.0948V29.1331V29.1714V29.2096V29.2477V29.2857V29.3236V29.3615V29.3993V29.437V29.4747V29.5123V29.5498V29.5872V29.6246V29.6618V29.699V29.7362V29.7732V29.8102V29.847V29.8839V29.9206V29.9572V29.9938V30.0303V30.0667V30.103V30.1393V30.1755V30.2116V30.2476V30.2835V30.3193V30.3551V30.3908V30.4264V30.4619V30.4973V30.5327V30.5679V30.6031V30.6382V30.6732V30.7081V30.7429V30.7777V30.8124V30.8469V30.8814V30.9158V30.9501V30.9844V31.0185V31.0526V31.0865V31.1204V31.1542V31.1879V31.2215V31.255V31.2884V31.3217V31.355V31.3881V31.4212V31.4542V31.487V31.5198V31.5525V31.5851V31.6176V31.65V31.6823V31.7145V31.7466V31.7787V31.8106V31.8424V31.8742V31.9058V31.9374V31.9688V32.0002V32.0314V32.0626V32.0936V32.1246V32.1555V32.1862V32.2169V32.2474V32.2779V32.3083V32.3385V32.3687V32.3987V32.4287V32.4586V32.4883V32.518V32.5475V32.577V32.6063V32.6355V32.6647V32.6937V32.7226V32.7514V32.7802V32.8088V32.8373V32.8657V32.894V32.9221V32.9502V32.9782V33.006V33.0338V33.0614V33.089V33.1164V33.1437V33.1709V33.198V33.225V33.2519V33.2787V33.3053V33.3319V33.3583V33.3846V33.4108V33.4369V33.4629V33.4888V33.5145V33.5402V33.5657V33.5911V33.6164V33.6416V33.6667V33.6916V33.7165V33.7412V33.7658V33.7903V33.8147V33.8389V33.863V33.8871V33.911V33.9347V33.9584V33.9819V34.0054V34.0287V34.0518V34.0749V34.0979V34.1207V34.1434V34.1659V34.1884V34.2107V34.2329V34.255V34.277V34.2988V34.3205V34.3421V34.3636V34.3849V34.4062V34.4273V34.4482V34.4691V34.4898V34.5104V34.5308V34.5512V34.5714V34.5914V34.6114V34.6312V34.6509C9.29486 36.7948 11.9326 37.6553 13.256 36.1054L20.0224 28.1807Z" stroke="#FFD600" stroke-width="3.5"/>
</svg>
